<?xml version="1.0" encoding="UTF-8"?>
<!DOCTYPE svg PUBLIC "-//W3C//DTD SVG 1.0//EN" "http://www.w3.org/TR/2001/REC-SVG-20010904/DTD/svg10.dtd">
<!-- Creator: CorelDRAW 2018 (64 Bit) -->
<svg xmlns="http://www.w3.org/2000/svg" xml:space="preserve" width="153px" height="59px" version="1.0" style="shape-rendering:geometricPrecision; text-rendering:geometricPrecision; image-rendering:optimizeQuality; fill-rule:evenodd; clip-rule:evenodd"
viewBox="0 0 88.1 34.033"
 xmlns:xlink="http://www.w3.org/1999/xlink">
 <defs>
  <style type="text/css">
   <![CDATA[
    .fil0 {fill:black;fill-rule:nonzero}
    .fil2 {fill:black;fill-rule:nonzero}
    .fil1 {fill:red;fill-rule:nonzero}
   ]]>
  </style>
 </defs>
 <g id="Camada_x0020_1">
  <metadata id="CorelCorpID_0Corel-Layer"/>
  <path class="fil0" d="M17.117 10.011l0.108 0c0.368,0 0.774,0.163 1.217,0.485l0.488 0.586 0.109 -0.037 0 0.037c0.272,0.402 0.467,0.813 0.588,1.239 0.08,0.068 0.16,0.298 0.244,0.693l-0.034 0.108c0.071,0 0.13,0.193 0.17,0.583l-0.099 0c0.093,0.15 0.136,0.263 0.136,0.343l-0.037 0.206c0.044,0 0.102,0.104 0.173,0.316l-0.027 -0.037 -0.035 0 0 0.037c0.162,0.021 0.245,0.092 0.245,0.205 0.115,0.055 0.229,0.157 0.344,0.307l-0.527 0.592 -0.098 0.172 0.036 0.098 -0.036 0.107 0.036 0.172 -0.318 1.654 0.037 0.144c-0.108,0.392 -0.248,0.681 -0.418,0.862 0,0.423 -0.334,0.883 -1.005,1.374 -0.412,0.328 -0.703,0.503 -0.87,0.522l-0.282 -0.071 -0.173 0.034c-0.572,0 -1.145,-0.331 -1.714,-0.997l-0.48 -0.801c0,-0.202 -0.068,-0.399 -0.207,-0.583l0.034 -0.098 -0.108 -0.107 0.074 -0.101 0 -0.034c-0.164,0 -0.269,-0.439 -0.319,-1.313 -0.037,0 -0.059,-0.083 -0.071,-0.242l0 -0.209 0.034 -0.135 -0.034 -0.144 0 -0.034 0.034 -0.172 -0.588 -0.619 0 -0.071c0.369,-0.402 0.554,-0.641 0.554,-0.721 0,-0.423 0.118,-1.049 0.353,-1.868 0.139,-0.212 0.241,-0.472 0.309,-0.792 0.319,-0.546 0.61,-0.855 0.87,-0.935l-0.028 -0.025 0 -0.037c0.223,-0.346 0.489,-0.521 0.798,-0.521 0.053,-0.114 0.226,-0.172 0.517,-0.172zm-0.21 0.973l0 0.024 0.182 0.037 0.028 0 0 -0.037 -0.173 -0.024 -0.037 0zm0.318 0.061l0 0.074 0.174 0.033 0.071 0 0 -0.033 -0.245 -0.074zm-0.798 0.62l0.037 0.181 0 0.027 -0.074 0.071 0.037 0.279 -0.037 1.555 -0.034 0.233 0.034 0.037 0 0.034 -0.034 0.037 0 0.037 0.034 0.036 0 0.025 -0.034 0.037 0 0.037c0.037,0.15 0.232,0.405 0.588,0.764l0 0.027c-0.368,0.411 -0.554,0.678 -0.554,0.798l-0.034 0.656 0.034 0.135 -0.071 0.074 0.071 0.061 0 0.144 -0.034 0.037 0.034 0.024 0 0.037 -0.034 0.181 0.034 0.099 -0.034 0.135 0.034 0.862 0 0.036c0,0.049 -0.047,0.071 -0.142,0.071l0 0.074c0.12,0 0.179,0.101 0.179,0.303 0.114,0.488 0.347,0.73 0.69,0.73l0.18 0c0.365,0 0.631,-0.312 0.798,-0.935 -0.012,-0.114 -0.047,-0.172 -0.108,-0.172l0.074 -0.205 -0.074 -0.243 0.037 -0.135 -0.037 -0.764 0.037 -0.037 0.037 0 -0.074 -0.171 0.037 -0.304 -0.037 -0.279 0.037 -0.378c0,-0.101 -0.198,-0.38 -0.591,-0.834 0.393,-0.432 0.591,-0.696 0.591,-0.791l-0.037 -0.037 0 -0.037 0.108 -0.135c-0.071,-0.083 -0.108,-0.163 -0.108,-0.242l0.037 -0.513 -0.037 -0.414 0.037 -0.107 -0.037 -0.206 0 -0.316 0.037 -0.135c-0.025,-0.184 -0.127,-0.472 -0.31,-0.862l-0.034 0 -0.037 0.037c-0.102,-0.049 -0.254,-0.07 -0.455,-0.07l-0.034 0c-0.309,0 -0.538,0.135 -0.69,0.411l-0.037 0zm3.237 1.969l0 0.037 0.065 0 0.142 -0.037 0 -0.037 -0.071 0 -0.136 0.037zm-0.564 0.037l0 0.07 0.038 0 0.145 -0.107 -0.037 0 -0.146 0.037zm0.39 0l0 0.034 0.137 0 0 -0.034 -0.137 0zm-0.56 0.169l0 0.036 0.109 0c0,-0.049 0.034,-0.07 0.099,-0.07l0 -0.028 -0.038 0 -0.17 0.062zm-0.21 0.036l0 0.037 0.037 0.034 0 0.037 -0.037 0.027 0 0.071 0.037 0c0,-0.064 0.034,-0.098 0.099,-0.098l0.112 0.027 -0.174 -0.135 -0.074 0zm-0.245 0.172l0.038 0 0.074 -0.064 -0.037 0 -0.075 0.064zm1.288 0.313l0 0.037 0.145 0.028 0.037 0 0 -0.028 -0.145 -0.037 -0.037 0zm-3.652 0.377l0 0.074 0.137 -0.037 0 -0.037 -0.137 0zm-0.21 0.135l0.037 0 0.071 -0.061 -0.034 0 -0.074 0.061zm-0.489 0.108l0 0.037 0.037 0 0.17 -0.037 0 -0.071 -0.207 0.071zm-0.479 0.208l0.027 0 0.208 -0.073 0 -0.034 -0.028 0c-0.139,0.021 -0.207,0.058 -0.207,0.107zm0.061 2.93l0.075 0.071 0.037 0 0 -0.071 -0.112 0zm0.808 0.178c0,0.043 0.034,0.064 0.099,0.064l0.074 0 0 -0.036 -0.173 -0.028zm0.272 0.101c0,0.046 0.037,0.071 0.109,0.071l0.037 0 0 -0.037 -0.146 -0.034zm2.058 0.654l0.136 0.11 0.071 0 0 -0.037 -0.17 -0.073 -0.037 0zm0.244 0.11l0 0.061 0.038 0 0.061 -0.061 -0.099 0zm0.554 0.206l0 0.027 0.146 0 0 -0.027 -0.146 0zm-1.423 0.619l0 0.037 0.062 0 0.145 -0.037 0 -0.037 -0.071 0 -0.136 0.037z"/>
  <path id="1" class="fil0" d="M24.126 9.974l0.461 0c0.182,0.074 0.349,0.111 0.498,0.111 0,0.07 0.108,0.116 0.319,0.135l0.535 0.393c0.288,-0.209 0.48,-0.396 0.569,-0.565l0.037 0 0 0.386 0.037 0.037 0 0.034c-0.037,0 -0.074,0.049 -0.108,0.144 0.071,0 0.108,0.022 0.108,0.065l0 0.107 -0.037 0.037 0.037 0.034 0 0.036 -0.037 0.037 0.037 0.034 0 0.181 -0.037 0.206 0.037 0.036 0 0.037 -0.037 0.107 0.037 0.108 -0.074 0.064 0.074 0.071 -0.037 0.181 0.037 0.107 -0.074 0.135 0.074 0.071 -0.037 0.036 0.037 0.037 0 0.034 -0.037 0.675 0 0.037 -0.037 0.037 0 0.024 0.074 0.074 0 0.178 -0.108 0.144 0.108 0.172 0 0.07 -0.074 0.074 -0.959 0 -0.037 -0.037 -0.037 0.037 -0.17 0 -0.038 -0.037 -0.037 0 -0.034 0.037 -0.037 -0.107 0.037 -0.568 -0.037 -0.037 0 -0.024 0.071 -0.218 -0.071 -0.071 0 -0.144 0.071 0 0 -0.037 -0.071 -0.098 0 -0.037 0.071 -0.07c0,-0.522 -0.154,-0.887 -0.461,-1.098 0,-0.059 -0.216,-0.12 -0.643,-0.178l0 -0.028 -0.183 0.064 0 -0.036c-0.306,0.239 -0.461,0.579 -0.461,1.024l-0.065 0.071 0 0.073 0.028 0.252 -0.028 0.034 0.065 0.064 0 0.396 -0.065 0 0.028 0.172 0 0.107 -0.028 0.215 0.065 0.205 -0.037 0.037 0.037 0.037 0 0.07 -0.065 0.316 0.028 0.145 -0.028 0 0.065 0.279 0 0.141 -0.037 0.144c0,0.061 0.204,0.307 0.606,0.736 -0.089,0.157 -0.256,0.335 -0.498,0.531l-0.136 0.531 0 0.181 0.028 0.135 -0.028 0.144 0.065 0.144 -0.065 0.276 0.065 0.252 -0.065 0.073 -0.179 -0.073 -0.038 0 0 0.037c0.164,0.018 0.245,0.073 0.245,0.171l-0.028 0.215 0.065 0.279 -0.037 0.037 0 0.034c0.151,0.61 0.377,0.917 0.681,0.917l0.216 0c0.594,-0.245 0.888,-0.595 0.888,-1.052l0.037 -0.034 0.099 0.034 0.109 0 0 -0.034c-0.186,0 -0.279,-0.098 -0.279,-0.288l0.034 -0.037 -0.034 -0.206 0.034 -0.423 -0.034 -0.215 0.034 -0.037 0.075 0 0.061 0.074 0.109 -0.037 1.033 -0.037 0 0.108 -0.034 0 0.071 0.601 0 0.423 -0.071 0.108 0.071 0.101 -0.037 0.178 0 0.107 -0.108 0 0 -0.07 -0.062 0c0,0.07 0.043,0.107 0.136,0.107l0.034 0.037 0 0.034c-0.173,0.515 -0.482,0.901 -0.922,1.159 -0.297,0.377 -0.82,0.568 -1.569,0.568 -0.176,0 -0.541,-0.178 -1.098,-0.531 -0.319,-0.371 -0.569,-0.7 -0.752,-0.988l0 -0.073 0.037 -0.108 -0.037 0c-0.05,0 -0.155,-0.233 -0.319,-0.699l0.037 -0.037 -0.179 -0.215 -0.183 -0.736 -0.065 -0.423 0.028 -0.037 0 -0.037c0,-0.347 -0.21,-0.687 -0.634,-1.025l-0.109 -0.144 0.499 -0.592 0.108 -0.601 -0.034 -0.037c0.022,-0.282 0.059,-0.445 0.108,-0.494l-0.037 -0.144 0.071 -0.144 -0.034 -0.098c0.217,-1.007 0.418,-1.632 0.598,-1.878 0.018,-0.138 0.067,-0.208 0.145,-0.208l0 -0.071c0,-0.175 0.083,-0.316 0.253,-0.423 0.066,-0.27 0.304,-0.494 0.709,-0.675 0.022,-0.077 0.152,-0.144 0.39,-0.206 0,-0.119 0.201,-0.181 0.607,-0.181zm1.033 0.497l0 0.034 0.037 0c0,-0.071 0.034,-0.107 0.109,-0.107l0.034 -0.108 -0.034 0c-0.05,0.013 -0.099,0.071 -0.146,0.181zm-0.319 0l0 0.108 0.038 0 0.028 -0.108 -0.066 0zm-0.433 0.35l0 0.037 0.143 0 0 -0.037 -0.143 0zm0 0.107l-0.028 0.037 0 0.071 0.028 0 0.034 -0.108 -0.034 0zm-1.634 0.037l-0.034 0.034 0 0.037 0.034 0 0.109 -0.037 0 -0.034 -0.109 0zm1.498 0.071l-0.037 0.037 0 0.036 0.108 0 -0.071 -0.073zm-1.887 0.423l0.065 0 0 -0.073c0.071,0 0.108,-0.022 0.108,-0.071l-0.037 0 -0.136 0.144zm2.812 -0.037l0 0.037 0.17 0.071 0 -0.071 -0.136 -0.037 -0.034 0zm0.461 0.424l0.146 0.214 0 0.037 0.062 0 -0.025 -0.037 0 -0.036 0.025 -0.034 0 -0.037c-0.059,0 -0.13,-0.037 -0.208,-0.107zm-0.216 0.037l0 0.07 0.108 0 0 -0.037 -0.108 -0.033zm0.461 0.251l0 0.061 0.071 0c0,0.074 0.037,0.108 0.111,0.108l0 0.073 0.071 0 -0.182 -0.242 -0.071 0zm0.461 0.313l0 0.144 0.074 0c0.046,0 0.071,-0.037 0.071,-0.107l0 -0.037 -0.034 0 0 0.074 -0.074 0 0 -0.074 -0.037 0zm-3.59 5.052c0,0.059 -0.071,0.117 -0.216,0.169l0 0.074 0.253 -0.209 0 -0.034 -0.037 0zm0.075 0.206l-0.038 0.107 0.245 0 0 -0.037 -0.136 -0.07 -0.071 0zm0.352 0.037l-0.037 0.033 0 0.037 0.183 0.074 0.037 0 0 -0.037 -0.183 -0.107zm-0.888 0.107c-0.049,0.108 -0.096,0.169 -0.145,0.178l0 -0.034 -0.108 0.034 0 0.065 0.037 -0.028 0.071 0 0.037 0.028 0.034 0c0,-0.09 0.062,-0.148 0.182,-0.172l0 -0.034 -0.108 -0.037zm-0.39 0.279l0 0.108 0.137 -0.074 -0.037 -0.034 0 -0.036 -0.1 0.036zm3.664 0.359l0 0.037 0.108 0 0 -0.074 -0.108 0.037zm0.142 0.135l0 0.037 0.112 0.034 0 -0.071 -0.112 0zm0.137 0.037l0 0.071 0.182 0 0 -0.037 -0.182 -0.034z"/>
  <path id="2" class="fil0" d="M31.948 10.011l0.108 0c0.254,0 0.53,0.249 0.824,0.746l0.083 0.26 -0.046 0c-0.127,-0.202 -0.313,-0.303 -0.56,-0.303 -0.127,0 -0.229,0.073 -0.301,0.224l0.155 0.819c-0.049,0 -0.074,0.036 -0.074,0.116l-0.037 -0.046 -0.044 0 0 0.191 0.044 0 0.037 -0.145 0.074 0c0.204,1.825 0.415,2.74 0.634,2.74l0.072 0.224c0.083,0 0.235,0.113 0.454,0.334l0 0.037c-0.207,0.245 -0.358,0.469 -0.454,0.672l0.68 3.935c0.078,0.2 0.189,0.298 0.334,0.298l0.109 0c0.145,0 0.297,-0.098 0.455,-0.298l0.037 0.037c-0.436,0.595 -0.848,0.89 -1.235,0.89l-0.452 -0.261 -0.074 0c-0.3,0.199 -0.513,0.298 -0.634,0.298l-0.155 0c-0.349,0 -0.671,-0.249 -0.968,-0.746l0.037 0c0.272,0.126 0.482,0.187 0.634,0.187 0.152,-0.018 0.226,-0.116 0.226,-0.294l-0.108 -0.595 0.216 -0.154 -0.037 0 -0.179 0.083 -0.047 -0.046 0 -0.439c-0.12,0 -0.207,-0.371 -0.263,-1.116l-0.037 -0.034 0 -0.037 -0.371 0 -0.406 -0.036 -0.12 0.036 -0.523 -0.116c0,0.058 -0.102,0.098 -0.3,0.116 -0.146,0.825 -0.282,1.433 -0.409,1.816l-0.037 0.556c0.049,0.15 0.149,0.227 0.3,0.227 0.115,0 0.239,-0.052 0.372,-0.154l0 0.08c-0.103,0.227 -0.35,0.451 -0.743,0.666l-0.155 0c-0.204,0 -0.418,-0.111 -0.634,-0.332l-0.037 0c-0.217,0.197 -0.418,0.295 -0.597,0.295l-0.155 0c-0.597,-0.15 -0.897,-0.387 -0.897,-0.709 0.163,0.102 0.328,0.154 0.488,0.154 0.279,0 0.48,-0.224 0.601,-0.666l0.034 0 -0.034 -0.046 0 -0.107 0.334 -0.927 -0.037 -0.034 0 -0.082 0.145 -0.629 -0.037 -0.037 0.337 -1.184 -0.037 -0.037 0 -0.037c0.043,-0.052 0.081,-0.227 0.118,-0.521 -0.065,-0.178 -0.217,-0.405 -0.452,-0.672 0.04,-0.111 0.229,-0.295 0.56,-0.558l0.263 -0.369c0,-0.22 0.124,-0.383 0.371,-0.484l0 -0.037 -0.108 -0.037c-0.018,0.126 -0.056,0.19 -0.117,0.19l-0.038 0 0 -0.083c0.328,-1.19 0.493,-1.92 0.493,-2.184l0.071 -0.294c0,-0.35 -0.137,-0.522 -0.409,-0.522l-0.334 0.144 0 -0.036c0.297,-0.491 0.569,-0.737 0.823,-0.737 0,-0.055 0.062,-0.082 0.183,-0.082l0 0.045 0.037 -0.045 0.08 0 0 0.082 0.075 0 0 -0.082c0.312,0 0.637,0.162 0.968,0.487 0.316,-0.395 0.591,-0.595 0.826,-0.595zm-1.724 0.405l0 0.046 0.038 0 0.117 -0.046 0 -0.037 -0.046 0 -0.109 0.037zm-0.3 0.377l0 0.037 0.038 0 0.154 -0.153 -0.037 0c-0.102,0.043 -0.155,0.08 -0.155,0.116zm1.653 1.672l0 0.071c0.108,-0.034 0.257,-0.144 0.442,-0.332l-0.037 0c-0.102,0.031 -0.213,0.117 -0.334,0.261l-0.071 0zm-0.263 0.261l0.034 0 0.145 -0.08 0 -0.073 -0.037 0 -0.142 0.153zm-0.492 0.298l0.037 0c0.114,-0.05 0.179,-0.102 0.192,-0.154l0 -0.037c-0.152,0.08 -0.229,0.141 -0.229,0.191zm-0.071 -0.083l-0.072 0.153 0.072 0 0.037 -0.116 0 -0.037 -0.037 0zm0.408 0.116l0.118 0.111 0.216 -0.037 0 0.07 0.118 0c0,-0.07 -0.062,-0.107 -0.189,-0.107l0 -0.037 -0.037 0.037 -0.037 0 -0.189 -0.037zm-1.235 0.405l0 0.074 0.635 -0.368 0 -0.037 -0.071 0 -0.564 0.331zm0.827 -0.331c-0.056,0.442 -0.143,0.666 -0.263,0.666l0.037 0.033 -0.109 0.559 0.034 0.116c-0.126,0.295 -0.278,0.826 -0.451,1.592l-0.037 0.043c0.077,0 0.117,0.037 0.117,0.108l0.037 0.037 0.038 0 0.142 -0.037 0.755 0.073c0,-0.049 0.074,-0.073 0.226,-0.073l-0.226 -1.635 0.034 -0.108c-0.198,-0.616 -0.297,-1.076 -0.297,-1.374l-0.037 0zm0.934 0.07l0.118 0.117 0.037 -0.034 0 -0.046 -0.155 -0.037zm0.263 0.154l0.108 0.107 0 -0.036 -0.074 -0.071 -0.034 0zm0.189 0.144l0 0.037 0.145 0.043c0,-0.052 -0.037,-0.08 -0.108,-0.08l-0.037 0zm-2.547 0.154l0 0.107 0.146 -0.107 0 -0.037 -0.146 0.037zm-0.714 4.457l0 0.07 0.117 -0.033 0 -0.037 -0.117 0zm-0.264 0.07l0 0.037 0.044 0 0.145 -0.037 0 -0.033 -0.071 0 -0.118 0.033zm-0.219 0.037l-0.034 0.037 0 0.034 0.034 0 0.108 -0.034 0 -0.037 -0.108 0zm4.27 0.485l0 0.073 0.108 -0.036 0 -0.074 -0.108 0.037zm-0.118 0.261l0.038 0 0.262 -0.08 0 -0.074c-0.201,0.043 -0.3,0.095 -0.3,0.154zm-0.334 0.073l0 0.034 0.071 0 0 -0.107 -0.071 0.073zm-0.111 0.034l-0.044 0.107 0.081 0 0 -0.107 -0.037 0zm0.182 0.334l0.118 0.117 0 -0.046 -0.081 -0.071 -0.037 0zm0.118 0.154l0 0.034 0.145 0.073 0 -0.107 -0.145 0zm0.216 0.141l0.121 0.19 0.071 0 0 -0.116 -0.145 -0.074 -0.047 0zm0.681 0.451l0 0.037c0.068,0.125 0.167,0.187 0.3,0.187l-0.3 -0.224z"/>
  <path id="3" class="fil0" d="M37.088 10.011c0.548,0 0.999,0.328 1.349,0.982l-0.037 0c-0.149,-0.12 -0.294,-0.181 -0.433,-0.181l-0.075 0c-0.281,0 -0.442,0.147 -0.479,0.442l0.037 0.285 -0.037 0.764 -0.071 0.073 0.034 0.034 0 0.037 -0.071 0.074 0.071 0.107 -0.034 0.187 0.071 0.074 -0.071 0.07 0.071 0.252 -0.071 0.181 0.071 0.07 0 0.083 -0.037 0.141 0.037 0.144 0 0.037 -0.071 0.108 0 0.036 0.216 0.62c0.084,0 0.232,0.135 0.446,0.405 -0.418,0.479 -0.628,0.782 -0.628,0.908l-0.034 0.215 0.071 0.288 -0.037 0.513 0.037 0.404 -0.071 0.071 0 0.037 0.071 0.107 -0.037 0.215 0.037 0.478 0 0.071 -0.071 0.107 0.071 0.074 -0.037 0.034 0 0.037 0.074 0.07 0 0.335c0,0.484 0.232,0.727 0.696,0.727 0.424,0 0.789,-0.402 1.099,-1.203l0.037 -0.396 -0.075 -0.227 0 -0.033 0.183 0 0 -0.074 -0.037 0.037 -0.037 0 -0.143 -0.071 0.034 -0.218 -0.034 -0.656c0.016,-0.141 0.053,-0.215 0.109,-0.215l0.189 0 0.074 0.074 0.034 -0.037 0.365 0.037 0.588 -0.074 0.037 0.037 -0.037 0.727 0 0.181 -0.074 0.071c0.074,0.282 0.111,0.585 0.111,0.908 -0.115,0.533 -0.263,0.886 -0.446,1.061 -0.266,0.454 -0.495,0.681 -0.69,0.681 0,0.123 -0.195,0.209 -0.588,0.261l-0.108 -0.034c0,0.144 -0.356,0.215 -1.07,0.215 -0.338,0 -0.765,-0.147 -1.279,-0.442l-0.071 0.083 -0.046 -0.046 -0.037 0 -0.254 0.083c-0.47,0 -1.009,-0.209 -1.612,-0.623l-0.037 -0.034 0 -0.073 0.037 0 0.588 0.107c0.266,-0.089 0.399,-0.249 0.399,-0.476 0,-0.095 0.025,-0.144 0.071,-0.144l-0.034 -0.178 0.071 -0.11 -0.071 -0.117 0 -0.144 0.034 -0.178 -0.034 -0.037 -0.037 0 0.037 -0.368 0 -0.61 0.034 -0.037 -0.034 -0.107 -0.037 -0.657 0.037 -0.224 -0.037 -0.181 0.037 -0.288c0,-0.227 -0.182,-0.516 -0.544,-0.872 0.309,-0.334 0.513,-0.653 0.615,-0.95 -0.071,-0.169 -0.108,-0.338 -0.108,-0.503l0.071 -0.405 -0.071 -0.433 0.071 -0.476 -0.034 -0.144 0 -0.036 0.034 -0.034 0 -0.037 -0.071 -0.07 0 -0.442c-0.071,-0.51 -0.241,-0.764 -0.507,-0.764l-0.072 0c-0.117,0 -0.25,0.07 -0.408,0.215l-0.037 -0.034c0.102,-0.276 0.287,-0.497 0.554,-0.657l0.034 0 0.145 0.08 0.037 0 0 -0.046 -0.145 -0.034c0.213,-0.193 0.48,-0.288 0.807,-0.288 0.23,0 0.449,0.107 0.663,0.322 0.21,-0.239 0.43,-0.359 0.662,-0.359zm-1.696 0.512l0.071 0.074 0.047 0 -0.084 -0.074 -0.034 0zm0.3 0.108l0 0.073 0.109 0.037 0 -0.073 -0.109 -0.037zm0.362 0.181l0 0.037 0.109 0.033 0 -0.07 -0.109 0zm0.217 0.07l0 0.037 0.155 0 0 -0.037 -0.155 0zm0.733 1.672l0.037 0 0.081 -0.07 -0.034 0 -0.084 0.07zm-0.399 0.368l0 0.037 0.074 -0.07 0 -0.037 -0.074 0.07zm-0.288 0.181l0 0.037 0.109 -0.107 -0.038 0 -0.071 0.07zm0.146 0.252l0 0.037 0.108 -0.108 -0.037 0 -0.071 0.071zm-0.517 0.107l-0.074 0.117 0.074 0 0.034 -0.117 -0.034 0zm-0.254 0.298l0 0.037 0.071 -0.074 0 -0.037 -0.071 0.074zm0.109 0.07l0.034 0 0.074 -0.07 -0.037 0 -0.071 0.07zm4.586 3.2l0 0.037 0.071 -0.071 0 -0.036 -0.071 0.07zm-0.7 -0.034l0 0.071 0.111 -0.037 0 -0.034 -0.111 0zm0.257 0.439l0 0.073c0.241,-0.091 0.377,-0.177 0.405,-0.26l-0.034 0c-0.133,0.126 -0.257,0.187 -0.371,0.187zm-3.193 1.457l0 0.034 0.037 0c0.189,-0.034 0.359,-0.111 0.517,-0.224l-0.038 0c-0.254,0.126 -0.424,0.19 -0.516,0.19zm-0.254 0.108l0 0.036 0.074 0 0.108 -0.036 0 -0.037 -0.074 0 -0.108 0.037zm-0.226 0.07l-0.037 0.037 0 0.037 0.118 0 -0.081 -0.074zm-0.183 0.037l-0.034 0.037 0 0.033 0.034 0 0.112 -0.033 0 -0.037 -0.112 0zm-0.179 0.107l0.037 0 0.071 -0.07 -0.037 0 -0.071 0.07zm2.754 0.513l0.074 0.073 0.037 0 -0.074 -0.073 -0.037 0zm0.254 0.107l0.074 0.073 0.037 0 -0.074 -0.073 -0.037 0zm0.436 0.218l0 0.033 0.263 0.037 0 -0.07 -0.263 0z"/>
  <path id="4" class="fil0" d="M42.265 10.011c0.133,0 0.319,0.111 0.563,0.335 0.155,-0.2 0.303,-0.298 0.442,-0.298 0.811,0 1.334,0.307 1.569,0.926l-0.526 -0.144c-0.343,0.031 -0.517,0.129 -0.517,0.295l0.038 0.963 0 0.215 -0.038 0.297 0.038 0.298 -0.038 0.261 0.038 0.331 0 0.853 0.597 0.739 0 0.071c-0.177,0.245 -0.313,0.368 -0.418,0.368l0.046 0.046 0 0.033c-0.151,0.132 -0.238,0.304 -0.263,0.513l0.038 0.702 0 0.629 -0.075 0 0 0.341 0.037 0.217 -0.037 0.034 0 0.037 0.075 0.451 -0.038 0.853 0.038 0.107 -0.038 0.144c0.26,0.301 0.434,0.448 0.517,0.448 0.146,0 0.309,-0.061 0.489,-0.187l0.037 0c0,0.282 -0.275,0.503 -0.826,0.666l-0.034 -0.037 -0.037 0c-0.217,0.175 -0.39,0.261 -0.517,0.261 -0.26,0 -0.47,-0.099 -0.634,-0.298 0,0.107 -0.214,0.172 -0.635,0.19 -0.612,-0.107 -1.033,-0.294 -1.268,-0.558l-0.192 -0.224 0.037 -0.037 0.452 0.224c0.393,-0.119 0.591,-0.303 0.591,-0.555l-0.037 -0.037 0 -0.224 0.08 -0.107 -0.08 -0.298 0.037 -0.037 -0.037 -0.447 0 -0.074c0,-0.755 0.027,-1.273 0.08,-1.552l-0.08 -0.218 0.037 -0.224 -0.037 -0.368 0 -0.117 -0.554 -0.702c0.393,-0.485 0.591,-0.804 0.591,-0.96l0.043 -0.666 -0.08 -0.331 0 -0.111 0.117 -1.006c-0.083,0 -0.136,-0.233 -0.154,-0.699l0.037 -0.108c0,-0.224 -0.186,-0.371 -0.554,-0.451l-0.043 0c-0.152,0 -0.288,0.065 -0.409,0.19l0 -0.073c0.229,-0.402 0.641,-0.697 1.232,-0.89l0.3 0zm0.934 0.819l0 0.071 0.143 -0.034 0 -0.037 -0.143 0zm-0.229 0.071l0.074 0.073 0.038 0 0 -0.073 -0.112 0zm-0.334 0.073l0 0.034 0.263 -0.034 0 -0.036 -0.155 0 -0.108 0.036zm-0.671 0.071c0,0.055 0.037,0.08 0.108,0.08l0.037 0 0 -0.043 -0.145 -0.037zm1.46 2.589l0 0.08 0.108 -0.037 0 -0.08 -0.108 0.037zm-0.083 0.224l-0.035 0.117 0 0.036 0.035 0 0.083 -0.153 -0.083 0zm-0.18 0.334l0 0.034 0.071 -0.07 0 -0.037 -0.071 0.073zm-0.118 0.188l-0.037 0.107 0.075 0 0.043 -0.107 -0.081 0zm-0.074 0.144l-0.034 0.116 0.071 0 0 -0.116 -0.037 0zm-0.297 0.448l-0.074 0.144 0 0.073 0.037 0 0.071 -0.181 0 -0.036 -0.034 0zm-0.183 0.297l-0.036 0.107 0.074 0 0 -0.107 -0.038 0zm0.709 0.181l0 0.034 0.108 -0.108 -0.037 0 -0.071 0.074zm-1.043 0.261l0 0.034 0.072 0 0.108 -0.145 0 -0.033c-0.034,0 -0.071,0.046 -0.108,0.144l-0.072 0zm-0.191 0.224l0 0.037 0.074 0 0.117 -0.154 0 -0.037 -0.154 0.154 -0.037 0zm0.445 0.07l0 0.037 0.155 0 0 -0.07 -0.155 0.033zm0.489 2.626l0 0.071 0.108 0 0 -0.037 -0.108 -0.034zm0.226 0.117l0 0.037 0.145 0.033 0.037 0 0 -0.033 -0.145 -0.037 -0.037 0zm0.3 0.107l0 0.071 0.179 0 0.038 0.037 0.037 0 0 -0.071 -0.183 0 -0.034 -0.037 -0.037 0zm-0.597 0.037l0 0.034 0.142 0.037c0,-0.046 -0.034,-0.071 -0.108,-0.071l-0.034 0zm0.371 0.187l0 0.074 0.143 0.034 -0.143 -0.108z"/>
  <path id="5" class="fil0" d="M45.427 10.103l0.065 0c0,0.077 0.223,0.307 0.671,0.69l0.034 0 0.836 -0.484c0.152,0 0.362,-0.046 0.634,-0.135l0.353 -0.071c0.26,0 0.833,0.117 1.714,0.35l0.526 0 0.635 -0.218 0 0.037c-0.217,0.623 -0.461,1.181 -0.734,1.672 0,-0.065 -0.083,-0.147 -0.244,-0.243l-0.037 0 0.281 0.28c-0.037,0.239 -0.13,0.469 -0.281,0.69l-0.074 0.279 -0.035 -0.037 -0.074 0 0 0.037 0.074 0c-0.055,0.325 -0.16,0.485 -0.318,0.485l-0.136 0.036 -0.038 -0.036 0 0.036 0.038 0.108 0.074 0c0,-0.071 0.043,-0.108 0.136,-0.108l0.034 0.037 0 0.037c-0.161,0.279 -0.282,0.617 -0.353,1.006l0.427 0.555c-0.303,0.27 -0.597,0.482 -0.879,0.629 -0.265,0.641 -0.488,1.083 -0.662,1.323l0.025 0.036 0 0.034c-0.161,0.482 -0.266,0.736 -0.306,0.767 0,0.209 -0.105,0.313 -0.319,0.313 0,0.055 -0.105,0.086 -0.315,0.098l-0.038 0.037 0 0.037 0.564 -0.172 0 0.037c0,0.162 -0.084,0.242 -0.245,0.242l0 0.028 0.071 0 -0.216 0.555 0.034 0.037 0 0.037 -0.1 0.279c0,0.101 0.152,0.169 0.456,0.205l0.804 0c0.353,-0.196 0.526,-0.383 0.526,-0.558l0 -0.242 0.037 -0.341 -0.037 -0.181 0.037 -0.205 -0.037 -0.172 0.074 -0.522 -0.074 -0.07 0 -0.172c0,-0.046 0.037,-0.071 0.108,-0.071l0.492 -0.036 0.489 0.036 0.136 -0.036 0.038 0.036c0,0.157 -0.118,0.273 -0.347,0.35l0 0.028 0.099 0c0.025,-0.068 0.096,-0.098 0.21,-0.098l-0.037 0.34 0.075 0.666c-0.025,0.089 -0.072,0.135 -0.137,0.135l0 0.033c0.09,0 0.137,0.074 0.137,0.218l0 0.485c0,0.316 -0.365,0.746 -1.09,1.285 -0.331,0.138 -0.566,0.206 -0.699,0.206l-0.316 -0.071 -0.074 0.071 -0.136 0c-0.269,0 -0.774,-0.104 -1.504,-0.313l-0.282 -0.037 -0.071 0c-0.417,0 -0.86,0.129 -1.333,0.387l-0.037 -0.037 0.637 -1.491c0.065,-0.371 0.158,-0.558 0.279,-0.558l-0.072 -0.108 0.316 -0.558 0 -0.034 -0.071 0 0 -0.027c0.284,-0.503 0.495,-1.016 0.634,-1.537 0.096,-0.144 0.18,-0.35 0.245,-0.62l0 -0.144 -0.424 -0.522c0.433,-0.288 0.727,-0.506 0.879,-0.656 0.241,-0.353 0.417,-0.736 0.526,-1.151l0.17 -0.036 0 -0.071 -0.099 -0.037 0.489 -1.248c0.092,-0.144 0.136,-0.328 0.136,-0.558l-0.034 0c-0.038,-0.114 -0.294,-0.169 -0.771,-0.169 -0.551,0.276 -0.829,0.472 -0.835,0.592 -0.065,0 -0.115,0.113 -0.146,0.34l0 0.387 0.074 0.764c0,0.138 -0.049,0.208 -0.145,0.208l0 0.071 0.034 -0.034 0.037 0 0.037 0.034 0 0.353c0,0.039 -0.037,0.061 -0.108,0.061l-0.136 0.037 -0.037 0.034 0 0.036 -0.597 -0.036 -0.211 0 -0.136 -0.169 0 -0.074c0.068,0 0.102,-0.021 0.102,-0.07l-0.074 0 0 -0.899 -0.028 -0.144 0.028 -0.037 -0.028 -0.243 0 -0.033 0.028 -0.586 -0.028 -0.279 0.028 -0.178 -0.028 -0.485 0 -0.764zm2.132 0.243l0 0.033 0.108 0.037 0.038 0 0 -0.037 -0.109 -0.033 -0.037 0zm0.808 0.42l0 0.064 0.142 0.037c0,-0.037 -0.046,-0.071 -0.142,-0.101zm0.179 0.101l0.099 0.107 0.037 0 -0.099 -0.107 -0.037 0zm0.245 0.169l0.098 0.107 0 -0.034 -0.061 -0.073 -0.037 0zm0.21 0.144l0 0.037 0.353 0.169 -0.319 -0.206 -0.034 0zm0.668 0.414c0,0.046 0.034,0.071 0.102,0.071l0.035 0 0 -0.034 -0.137 -0.037zm-0.315 1.319l0.037 0.111 0.062 0 0.074 -0.074 -0.173 -0.037zm-0.282 0.074l0 0.037 0.099 0 0.037 -0.037 0 -0.037 -0.037 0 -0.099 0.037zm-0.451 0.107l0 0.037 0.061 0.061 0.074 0 -0.037 -0.024 0 -0.037 0.208 -0.074 0 -0.033 -0.099 0 -0.207 0.07zm-0.502 0.135l0.464 -0.098 0 -0.037 -0.074 0c-0.26,0.055 -0.39,0.098 -0.39,0.135zm-0.207 -0.037l0 0.037 0.182 0 0 -0.037 -0.182 0zm1.123 0.108l0.074 0.073 0.034 0 -0.071 -0.073 -0.037 0zm0 0.135l0 0.036 0.074 0 0.099 -0.036 0 -0.025 -0.037 0 -0.136 0.025zm-0.316 0.144l0.037 0 0.072 -0.071 -0.037 0 -0.072 0.071zm-2.701 0l-0.037 0.037 0 0.037 0.037 0 0.145 -0.037 0 -0.037 -0.145 0zm-0.455 0.135l0 0.037 0.136 0 0.075 -0.065 -0.037 0 -0.174 0.028zm3.828 4.037l0.034 0 0.065 -0.064 -0.037 0 -0.062 0.064zm-2.63 0.699l0 0.037 0.099 0 0.108 -0.037 0 -0.037 -0.034 0 -0.173 0.037zm0.38 0.065l0 0.107 0.174 -0.074 0.034 0.037 0.111 0 0 -0.037 -0.248 -0.033 -0.071 0zm1.968 0l0 0.033 0.17 0 0 -0.033 -0.17 0zm0.316 0l0 0.07 0.028 -0.037 0.074 0 0.034 0.037 0.037 0 0 -0.07 -0.173 0zm0.526 0l0 0.033 0.173 0 0 -0.033 -0.173 0zm-3.689 0.144l0.109 0.034c0,-0.052 0.059,-0.089 0.173,-0.108l0 -0.037 -0.173 0 -0.109 0.111zm0.561 -0.111l0 0.037c0.074,0 0.111,0.025 0.111,0.074l0.099 0 0 -0.037 -0.065 -0.074 -0.145 0zm-0.978 0.074l0 0.071 0.136 0 -0.028 -0.108 -0.108 0.037z"/>
  <path id="6" class="fil0" d="M56.146 10.011l0.108 0c0.254,0 0.529,0.249 0.823,0.746l0.084 0.26 -0.047 0c-0.127,-0.202 -0.312,-0.303 -0.56,-0.303 -0.127,0 -0.229,0.073 -0.3,0.224l0.155 0.819c-0.05,0 -0.074,0.036 -0.074,0.116l-0.038 -0.046 -0.043 0 0 0.191 0.043 0 0.038 -0.145 0.074 0c0.204,1.825 0.414,2.74 0.634,2.74l0.071 0.224c0.084,0 0.235,0.113 0.455,0.334l0 0.037c-0.207,0.245 -0.359,0.469 -0.455,0.672l0.681 3.935c0.077,0.2 0.189,0.298 0.334,0.298l0.109 0c0.145,0 0.297,-0.098 0.454,-0.298l0.038 0.037c-0.437,0.595 -0.848,0.89 -1.235,0.89l-0.452 -0.261 -0.074 0c-0.3,0.199 -0.514,0.298 -0.634,0.298l-0.155 0c-0.35,0 -0.672,-0.249 -0.969,-0.746l0.037 0c0.273,0.126 0.483,0.187 0.635,0.187 0.151,-0.018 0.226,-0.116 0.226,-0.294l-0.109 -0.595 0.217 -0.154 -0.037 0 -0.18 0.083 -0.046 -0.046 0 -0.439c-0.121,0 -0.207,-0.371 -0.263,-1.116l-0.037 -0.034 0 -0.037 -0.371 0 -0.406 -0.036 -0.121 0.036 -0.523 -0.116c0,0.058 -0.102,0.098 -0.3,0.116 -0.145,0.825 -0.281,1.433 -0.408,1.816l-0.037 0.556c0.049,0.15 0.148,0.227 0.3,0.227 0.114,0 0.238,-0.052 0.371,-0.154l0 0.08c-0.102,0.227 -0.349,0.451 -0.742,0.666l-0.155 0c-0.204,0 -0.418,-0.111 -0.634,-0.332l-0.038 0c-0.216,0.197 -0.417,0.295 -0.597,0.295l-0.155 0c-0.597,-0.15 -0.897,-0.387 -0.897,-0.709 0.164,0.102 0.328,0.154 0.489,0.154 0.279,0 0.48,-0.224 0.6,-0.666l0.034 0 -0.034 -0.046 0 -0.107 0.335 -0.927 -0.037 -0.034 0 -0.082 0.145 -0.629 -0.037 -0.037 0.337 -1.184 -0.037 -0.037 0 -0.037c0.043,-0.052 0.08,-0.227 0.117,-0.521 -0.065,-0.178 -0.216,-0.405 -0.452,-0.672 0.041,-0.111 0.23,-0.295 0.561,-0.558l0.263 -0.369c0,-0.22 0.123,-0.383 0.371,-0.484l0 -0.037 -0.108 -0.037c-0.019,0.126 -0.056,0.19 -0.118,0.19l-0.037 0 0 -0.083c0.328,-1.19 0.492,-1.92 0.492,-2.184l0.071 -0.294c0,-0.35 -0.136,-0.522 -0.408,-0.522l-0.335 0.144 0 -0.036c0.298,-0.491 0.57,-0.737 0.824,-0.737 0,-0.055 0.061,-0.082 0.182,-0.082l0 0.045 0.037 -0.045 0.081 0 0 0.082 0.074 0 0 -0.082c0.313,0 0.637,0.162 0.969,0.487 0.315,-0.395 0.591,-0.595 0.826,-0.595zm-1.724 0.405l0 0.046 0.037 0 0.118 -0.046 0 -0.037 -0.046 0 -0.109 0.037zm-0.3 0.377l0 0.037 0.037 0 0.155 -0.153 -0.037 0c-0.102,0.043 -0.155,0.08 -0.155,0.116zm1.653 1.672l0 0.071c0.108,-0.034 0.256,-0.144 0.442,-0.332l-0.037 0c-0.102,0.031 -0.213,0.117 -0.334,0.261l-0.071 0zm-0.263 0.261l0.033 0 0.146 -0.08 0 -0.073 -0.037 0 -0.142 0.153zm-0.492 0.298l0.037 0c0.114,-0.05 0.179,-0.102 0.191,-0.154l0 -0.037c-0.151,0.08 -0.228,0.141 -0.228,0.191zm-0.072 -0.083l-0.071 0.153 0.071 0 0.037 -0.116 0 -0.037 -0.037 0zm0.409 0.116l0.117 0.111 0.217 -0.037 0 0.07 0.117 0c0,-0.07 -0.061,-0.107 -0.188,-0.107l0 -0.037 -0.037 0.037 -0.038 0 -0.188 -0.037zm-1.235 0.405l0 0.074 0.634 -0.368 0 -0.037 -0.071 0 -0.563 0.331zm0.826 -0.331c-0.055,0.442 -0.142,0.666 -0.263,0.666l0.037 0.033 -0.108 0.559 0.034 0.116c-0.127,0.295 -0.278,0.826 -0.452,1.592l-0.037 0.043c0.077,0 0.118,0.037 0.118,0.108l0.037 0.037 0.037 0 0.142 -0.037 0.755 0.073c0,-0.049 0.075,-0.073 0.226,-0.073l-0.226 -1.635 0.035 -0.108c-0.198,-0.616 -0.298,-1.076 -0.298,-1.374l-0.037 0zm0.935 0.07l0.117 0.117 0.037 -0.034 0 -0.046 -0.154 -0.037zm0.263 0.154l0.108 0.107 0 -0.036 -0.074 -0.071 -0.034 0zm0.189 0.144l0 0.037 0.145 0.043c0,-0.052 -0.037,-0.08 -0.108,-0.08l-0.037 0zm-2.547 0.154l0 0.107 0.145 -0.107 0 -0.037 -0.145 0.037zm-0.715 4.457l0 0.07 0.118 -0.033 0 -0.037 -0.118 0zm-0.263 0.07l0 0.037 0.043 0 0.146 -0.037 0 -0.033 -0.071 0 -0.118 0.033zm-0.22 0.037l-0.034 0.037 0 0.034 0.034 0 0.109 -0.034 0 -0.037 -0.109 0zm4.271 0.485l0 0.073 0.108 -0.036 0 -0.074 -0.108 0.037zm-0.118 0.261l0.037 0 0.263 -0.08 0 -0.074c-0.201,0.043 -0.3,0.095 -0.3,0.154zm-0.334 0.073l0 0.034 0.071 0 0 -0.107 -0.071 0.073zm-0.112 0.034l-0.043 0.107 0.081 0 0 -0.107 -0.038 0zm0.183 0.334l0.118 0.117 0 -0.046 -0.081 -0.071 -0.037 0zm0.118 0.154l0 0.034 0.145 0.073 0 -0.107 -0.145 0zm0.216 0.141l0.121 0.19 0.071 0 0 -0.116 -0.145 -0.074 -0.047 0zm0.681 0.451l0 0.037c0.068,0.125 0.167,0.187 0.3,0.187l-0.3 -0.224z"/>
  <path class="fil0" d="M8.498 0.259c1.68,0 3.078,1.019 4.178,3.048l-0.111 0c-0.461,-0.371 -0.922,-0.565 -1.368,-0.565l-0.216 0c-0.862,0 -1.353,0.461 -1.487,1.376l0.134 0.892 -0.134 2.394 -0.215 0.215 0.111 0.112 0 0.111 -0.223 0.239 0.223 0.327 -0.111 0.565 0.215 0.238 -0.215 0.223 0.215 0.803 -0.215 0.565 0.215 0.223 0 0.215 -0.104 0.454 0.104 0.461 0 0.104 -0.215 0.349 0 0.112 0.676 1.918c0.26,0 0.714,0.416 1.353,1.264 -1.279,1.494 -1.918,2.431 -1.918,2.81l-0.111 0.692 0.215 0.899 -0.104 1.584 0.104 1.242 -0.215 0.245 0 0.104 0.215 0.327 -0.104 0.699 0.104 1.457 0 0.238 -0.215 0.327 0.215 0.246 -0.104 0.104 0 0.111 0.238 0.216 0 1.026c0,1.509 0.714,2.267 2.134,2.267 1.308,0 2.438,-1.241 3.398,-3.724l0.111 -1.264 -0.223 -0.677 0 -0.111 0.572 0 0 -0.216 -0.111 0.111 -0.134 0 -0.431 -0.245 0.104 -0.669 -0.104 -2.03c0.045,-0.461 0.149,-0.699 0.327,-0.699l0.565 0 0.238 0.246 0.112 -0.112 1.13 0.112 1.806 -0.246 0.112 0.134 -0.112 2.268 0 0.565 -0.238 0.215c0.231,0.885 0.35,1.83 0.35,2.833 -0.35,1.658 -0.796,2.744 -1.353,3.264 -0.84,1.442 -1.562,2.156 -2.156,2.156 0,0.364 -0.603,0.632 -1.807,0.811l-0.35 -0.134c0,0.468 -1.085,0.699 -3.263,0.699 -1.049,0 -2.372,-0.461 -3.963,-1.376l-0.245 0.246 -0.105 -0.134 -0.111 0 -0.781 0.237c-1.472,0 -3.13,-0.646 -4.988,-1.933l-0.112 -0.111 0 -0.216 0.112 0 1.806 0.327c0.826,-0.282 1.242,-0.765 1.242,-1.464 0,-0.305 0.082,-0.454 0.238,-0.454l-0.112 -0.565 0.223 -0.327 -0.223 -0.349 0 -0.461 0.112 -0.565 -0.112 -0.112 -0.126 0 0.126 -1.13 0 -1.918 0.112 -0.104 -0.112 -0.35 -0.126 -2.052 0.126 -0.669 -0.126 -0.572 0.126 -0.892c0,-0.707 -0.565,-1.621 -1.695,-2.721 0.944,-1.049 1.584,-2.023 1.918,-2.937 -0.238,-0.543 -0.349,-1.071 -0.349,-1.591l0.238 -1.242 -0.238 -1.375 0.238 -1.457 -0.112 -0.462 0 -0.104 0.112 -0.111 0 -0.134 -0.238 -0.216 0 -1.353c-0.231,-1.591 -0.759,-2.394 -1.569,-2.394l-0.238 0c-0.335,0 -0.751,0.231 -1.241,0.699l-0.112 -0.134c0.32,-0.855 0.885,-1.531 1.703,-2.022l0.104 0 0.461 0.216 0.104 0 0 -0.104 -0.454 -0.112c0.669,-0.61 1.502,-0.914 2.506,-0.914 0.706,0 1.383,0.342 2.022,1.026 0.669,-0.759 1.353,-1.138 2.052,-1.138zm-5.212 1.591l0.223 0.216 0.104 0 -0.215 -0.216 -0.112 0zm0.9 0.327l0 0.238 0.342 0.112 0 -0.216 -0.342 -0.134zm1.13 0.565l0 0.134 0.349 0.104 0 -0.238 -0.349 0zm0.676 0.238l0 0.112 0.454 0 0 -0.112 -0.454 0zm2.261 5.212l0.111 0 0.238 -0.223 -0.104 0 -0.245 0.223zm-1.242 1.13l0 0.112 0.223 -0.223 0 -0.105 -0.223 0.216zm-0.914 0.565l0 0.112 0.349 -0.328 -0.104 0 -0.245 0.216zm0.46 0.788l0 0.127 0.35 -0.35 -0.112 0 -0.238 0.223zm-1.568 0.35l-0.238 0.342 0.238 0 0.111 -0.342 -0.111 0zm-0.803 0.914l0 0.104 0.238 -0.238 0 -0.111 -0.238 0.245zm0.342 0.216l0.111 0 0.216 -0.216 -0.104 0 -0.223 0.216zm14.141 9.955l0 0.126 0.215 -0.238 0 -0.111 -0.215 0.223zm-2.156 -0.112l0 0.238 0.349 -0.126 0 -0.112 -0.349 0zm0.803 1.376l0 0.215c0.743,-0.275 1.152,-0.535 1.241,-0.788l-0.111 0c-0.402,0.379 -0.781,0.573 -1.13,0.573zm-9.844 4.528l0 0.111 0.112 0c0.579,-0.104 1.107,-0.327 1.583,-0.676l-0.104 0c-0.788,0.379 -1.316,0.565 -1.591,0.565zm-0.803 0.327l0 0.111 0.238 0 0.327 -0.111 0 -0.112 -0.223 0 -0.342 0.112zm-0.677 0.238l-0.111 0.089 0 0.134 0.349 0 -0.238 -0.223zm-0.572 0.089l-0.104 0.134 0 0.104 0.104 0 0.349 -0.104 0 -0.134 -0.349 0zm-0.565 0.349l0.134 0 0.215 -0.215 -0.104 0 -0.245 0.215zm8.498 1.591l0.215 0.216 0.112 0 -0.215 -0.216 -0.112 0zm0.781 0.327l0.245 0.238 0.104 0 -0.238 -0.238 -0.111 0zm1.375 0.692l0 0.111 0.781 0.112 0 -0.223 -0.781 0z"/>
  <path class="fil1" d="M67.312 0l0.111 0.112 0.112 0 0.691 -0.112 0.677 0 0.327 0.223 0.134 -0.111 0 -0.112c1.724,0 3.494,0.833 5.308,2.483l0.573 0.573c0,0.186 0.185,0.453 0.565,0.803l1.13 3.613 0.111 0 0 0.677 -0.111 0.676 0.215 0.892c-0.23,0 -0.342,0.082 -0.342,0.238 0.231,0 0.342,0.112 0.342,0.327 -0.111,2.342 -0.372,3.509 -0.78,3.509l0.111 0.454c-0.609,1.063 -1.249,1.97 -1.918,2.729 -1.643,1.65 -3.494,2.483 -5.554,2.483l-1.353 0 -1.94 -0.112 0 0.788c0,0.142 -0.105,0.216 -0.328,0.216l0.328 0.915 -0.216 0.676 0.216 0.216 -0.105 1.591 0.105 1.479 -0.216 0.439 0.216 0.238 0 0.453 -0.216 0.327 0.216 0.246 0 1.345 -0.105 0.112 0.105 0.111 0 0.32 -0.216 0c0.349,1.368 1.026,2.052 2.03,2.052l0.126 0.104 0.788 -0.104 0.342 0 0.223 0.216c-1.509,1.74 -2.61,2.617 -3.293,2.617 -1.42,0 -2.134,-0.268 -2.134,-0.811l-0.127 0.112 -0.223 0 -0.892 -0.216c-0.58,0.61 -1.264,0.915 -2.045,0.915 -1.234,0 -2.364,-0.535 -3.397,-1.591l-0.677 -1.138 0.112 -0.104 0.453 0c1.658,0 2.484,-0.305 2.484,-0.914 0.23,-0.818 0.349,-1.599 0.349,-2.357l-0.238 -0.669 0 -0.699 0.238 -1.138 -0.238 -0.215 0 -0.781 0.126 -0.676 -0.126 -0.134 0 -0.104 0.349 -0.677c-0.237,0 -0.349,-0.074 -0.349,-0.223l0.126 -0.565 -0.126 -0.803 0.238 -1.457c-0.119,0 -0.268,-0.498 -0.454,-1.487 -0.587,-0.736 -0.959,-1.115 -1.137,-1.13l-0.327 -0.431 1.464 -1.814 0.216 -0.454 0 -1.026 0.126 -1.569 -0.126 -0.349 0.126 -0.781 -0.126 -1.807 0.126 -0.46 -0.126 -0.915 0.126 -0.327c0,-1.874 -0.409,-2.929 -1.241,-3.182l-0.692 0.134 -0.223 -0.238 -1.018 0.238 0 -0.238c1.569,-1.799 3.301,-2.707 5.204,-2.707 0.26,0 0.602,0.305 1.026,0.9l0.104 0.104 0.112 0c0.87,-0.825 1.702,-1.316 2.505,-1.457l0.327 0.111c0,-0.304 0.565,-0.498 1.696,-0.572zm-1.807 0.788l0 0.126 0.788 0 0 -0.126 -0.788 0zm3.613 0.677l0 0.126c0.238,0 0.35,0.074 0.35,0.223l0.111 0 0 -0.223 -0.111 -0.126 -0.35 0zm0.677 0.126c0,0.149 0.119,0.223 0.349,0.223l0.112 0 0 -0.111 -0.461 -0.112zm0.565 0l0.134 0.327 0.438 0 -0.111 -0.327 -0.461 0zm0.81 0.327l0.216 0.238 0.111 0 -0.223 -0.238 -0.104 0zm-3.397 1.941l-0.565 -0.134 -1.592 1.487 0.105 0.565 0 0.892 -0.216 0.238 0.111 0.327 -0.111 2.045 0.216 2.267 -0.105 0.439 0.105 0.914 0 0.327c0,0.127 -0.372,0.365 -1.13,0.692l0 0.112 0.133 0 0.892 -0.35 0 0.111 -0.111 0.454c0,0.528 0.676,0.788 2.03,0.788l0.342 0.134 0.111 -0.134c1.435,-0.453 2.156,-1.011 2.156,-1.68 0.179,-0.052 0.327,-0.996 0.461,-2.833l-0.111 -0.669 0 -1.026 0.111 -1.026 -0.111 -0.453 0.111 -0.439c-0.409,-2.03 -1.167,-3.048 -2.267,-3.048l-0.238 -0.238 -0.327 0.238zm8.141 3.487l0 0.238 0.461 -0.238 0 -0.224 -0.461 0.224zm-2.045 1.806l0.461 -0.111 0.565 0.111 -0.223 -0.327 0 -0.111 0.573 -0.67 0 -0.133c-0.439,0.535 -0.818,0.803 -1.138,0.803l-0.238 0.438zm1.703 0l0 0.127 0.803 0.223 0 -0.223 -0.699 -0.127 -0.104 0zm-4.64 1.591l-0.111 0.104 0 0.246 0.111 0 0.238 -0.246 0 -0.104 -0.238 0zm-10.282 4.989l0 0.104 0.327 0 0.104 -0.104 0 -0.134 -0.104 0 -0.327 0.134zm-1.591 0.781l-0.349 0.461 0.237 0c0,-0.164 0.112,-0.246 0.328,-0.246l-0.216 -0.215zm5.204 8.579l0.112 0 0.565 -0.319 0 -0.223c-0.305,0.104 -0.528,0.282 -0.677,0.542zm-1.026 0.915l0 0.111 0.223 0 0.127 -0.111 0 -0.104 -0.35 0.104zm-0.565 0.676l0 0.112 0.461 -0.216 0 -0.223 -0.461 0.327zm-1.345 1.354l0.104 0 0.349 -0.328 0.112 0 0 -0.237 -0.565 0.565zm-0.573 0.46l0.112 0 0.349 -0.327 0 -0.133 -0.461 0.46zm2.141 -0.111l0 0.216 0.454 0 0 -0.105 -0.454 -0.111z"/>
  <path class="fil2" d="M70.689 19.152c0.339,0.085 0.644,0.263 0.916,0.534 0.284,-0.322 0.525,-0.483 0.733,-0.483l0.051 0c0.407,0.098 0.716,0.293 0.932,0.585l-0.101 0.098 0.101 0 0.149 -0.051 0.534 0.636 0 0.046 -0.398 -0.097 -0.285 0c-0.148,0 -0.283,0.326 -0.398,0.984l0.051 0.046 -0.102 0.772 0.051 0.445 -0.097 0.682 0.097 0.102 -0.051 0.238 0.051 0.296 0 0.051 -0.136 0 0.085 0.148 -0.046 0.285c0,0.521 0.309,1.025 0.928,1.517 -0.229,0.314 -0.394,0.492 -0.483,0.535l-0.051 -0.051c0,0.165 -0.064,0.246 -0.199,0.246l0.05 0.05 0 0.051 -0.245 0.534 0.097 0.149 0 0.097 -0.051 0.187 0.051 0.199 0 0.199 -0.136 0.136c0.034,0.301 0.077,0.449 0.136,0.449l-0.051 0.284 0.051 0.984 -0.097 0.148 0.097 0.433 0 0.102 -0.051 0.046c0.225,1.013 0.585,1.518 1.081,1.518l0.386 0c0.712,0 1.136,-0.441 1.268,-1.319l-0.039 -0.445 0 -0.288 0.09 -0.148 -0.09 -0.098 0 -0.102 0.09 -0.148 -0.051 -0.136 0.051 -0.05 -0.09 -0.098 0.09 -0.933 -0.051 -0.585 0.051 0 -0.09 -0.631 0.039 -0.051 0 -0.047c0,-0.136 -0.098,-0.36 -0.289,-0.682l0 -0.102 -0.046 0.051 -0.051 0c0,-0.132 -0.068,-0.2 -0.199,-0.2l-0.238 -0.284c0.522,-0.589 0.784,-0.932 0.784,-1.034l0.039 -0.233 -0.039 -0.149 0.039 -0.051 0.051 0 -0.09 -0.25 0.039 0 -0.039 -0.051 0.039 -0.483 -0.039 -0.483 0.09 -0.734 -0.09 -0.097 0.039 -0.051 -0.039 -0.237 0 -0.047 0.039 -0.051 -0.039 -0.051 0 -0.534 0.09 -0.097 -0.051 -0.251 0 -0.335 -0.335 -0.398 -0.348 0c-0.11,0 -0.22,0.051 -0.335,0.148l-0.051 0 0 -0.046c0.263,-0.496 0.619,-0.853 1.069,-1.069l0.148 0.047 0.148 -0.148 0.102 0c0.157,0 0.365,0.131 0.632,0.385 0.199,-0.19 0.411,-0.284 0.631,-0.284l0.102 0c0.81,0.297 1.217,0.619 1.217,0.967l0.098 0.102 0 0.046 -0.047 0 -0.687 -0.148c-0.22,0.076 -0.335,0.288 -0.335,0.636l0.038 0.199 -0.084 0.297 0.084 0.284 0 1.615 -0.038 0.289 0.038 0.296 -0.038 0.284 0.038 0.348 -0.038 0.148c0,0.161 0.276,0.53 0.823,1.119l0 0.149c-0.374,0.356 -0.666,0.712 -0.869,1.068l0.046 0.051 0.038 0 -0.084 0.585 0.084 0.246 -0.038 0.25 0.038 0.534 0 0.098 -0.084 0.288 0.084 0.246 -0.038 0.585 0.038 0.149 -0.084 0.097 0.084 0.089 0 0.051c0,0.237 -0.046,0.373 -0.135,0.394l-0.149 -0.046c0,0.063 0.064,0.097 0.2,0.097l0.046 0.051 0 0.051c0,0.386 -0.212,0.954 -0.644,1.7 -0.607,0.945 -1.484,1.416 -2.633,1.416l-0.386 0 -0.297 -0.051 -0.186 0.051c-0.861,-0.132 -1.53,-0.361 -2.014,-0.683 -0.521,-0.466 -0.86,-1 -1.017,-1.615l0.05 -0.051 0 -0.038 -0.25 -1.23 0.051 -0.334 -0.051 -0.446 0.102 -0.334c-0.068,0 -0.118,-0.357 -0.152,-1.069l0.101 -0.398 -0.101 -0.284 0 -0.153 0.05 -0.195c0,-0.242 -0.258,-0.649 -0.78,-1.217l0.73 -0.882c0,-0.127 0.067,-0.288 0.199,-0.487 -0.072,0 -0.14,-0.064 -0.199,-0.199l0 -0.098 0.05 0 -0.05 -0.335c0,-0.623 0.152,-0.932 0.449,-0.932l0 -0.051 -0.102 0 -0.195 0.102 -0.102 -0.289 0 -0.148 0.051 -0.2 -0.101 -0.245 0 -0.089 0.05 0c-0.05,-1.141 -0.195,-1.713 -0.432,-1.713l-0.585 0 -0.148 0.097 -0.051 0 0 -0.148c0.28,-0.53 0.835,-0.933 1.666,-1.217zm-0.547 1.467l0 0.098 0.347 0.101 0.098 0 0 -0.051 -0.445 -0.148zm1.179 0.386l0 0.047 0.237 0 0 -0.047 -0.237 0zm0.334 0.097l0 0.051 0.297 0.098 0.051 0 0 -0.047 -0.297 -0.102 -0.051 0zm4.732 0.484c0.25,-0.123 0.398,-0.233 0.449,-0.335l-0.051 0c-0.254,0.11 -0.39,0.22 -0.398,0.335zm-0.581 0.199l0 0.051 0.246 0 0 -0.051 -0.098 0 0 -0.047 -0.148 0.047zm-4.201 0.882l0 0.102 0.152 -0.051 0 -0.051 -0.152 0zm-0.382 0.148l0 0.051 0.047 0 0.237 -0.051 0 -0.046 -0.136 0 -0.148 0.046zm5.117 3.417l0.148 -0.051 0 -0.097 -0.148 0.148zm-5.804 0.335l0 0.051 0.2 0.098 0.038 0c0,-0.047 -0.064,-0.098 -0.187,-0.149l-0.051 0zm1.467 0.984l-0.051 0.046 0 0.038 0.187 0 0 -0.038 -0.136 -0.046zm-1.03 1.165l0 0.051 0.398 0.149c0,-0.06 -0.118,-0.123 -0.347,-0.2l-0.051 0zm5.18 0.102l0 0.047 0.098 -0.098 0 -0.051 -0.098 0.102zm-4.048 0.433l0 0.051 0.034 0.051 0.152 0 0 -0.051 -0.186 -0.051zm0.284 0.148l0 0.051 0.297 0.098c0,-0.056 -0.081,-0.107 -0.246,-0.149l-0.051 0zm3.663 0.92l0 0.097 0.199 0.051 0 -0.097 -0.199 -0.051zm-0.394 0.097l0.097 0.102 0.051 0 -0.102 -0.102 -0.046 0zm0.83 0.051l0 0.051 0.2 0.051c0,-0.068 -0.051,-0.102 -0.153,-0.102l-0.047 0zm0.297 0.051l0 0.098 0.238 0 0 -0.047 -0.238 -0.051zm-0.882 0.098l0.102 0.102 0.047 0 -0.098 -0.102 -0.051 0zm1.217 0.051l0 0.051 0.148 0.046 0.051 0 0 -0.046 -0.148 -0.051 -0.051 0zm-0.831 0.148l0 0.051 0.297 0.187 0 -0.09 -0.297 -0.148zm0.445 0.335c0,0.068 0.068,0.102 0.199,0.102l0 0.097 0.136 0 0 -0.051 -0.335 -0.148zm0.335 0.25l0 0.051 0.199 0.047c0,-0.064 -0.046,-0.098 -0.148,-0.098l-0.051 0zm-5.414 1.166l0 0.051 0.251 0 0 -0.051 -0.251 0zm-0.237 0.102l0 0.097 0.14 -0.051 0 -0.046 -0.14 0z"/>
  <path id="1" class="fil2" d="M83.725 19.152c1.386,0.076 2.128,0.221 2.239,0.437 0.411,0.097 0.899,0.521 1.454,1.268l0 0.097 -0.102 0 0 0.098c0.216,0 0.348,0.224 0.398,0.674l0.136 0.296 -0.038 0.051 0 0.047 0.038 0.152 -0.038 0 -0.148 -0.05c0,0.05 0.08,0.093 0.237,0.135l0.098 1.081c-0.047,0.522 -0.373,1.2 -0.967,2.035l-0.636 0.437 0 0.148c0.615,0.522 0.92,0.827 0.92,0.92l0 0.149c0,0.067 -0.047,0.101 -0.136,0.101l0 0.047 0.136 0 0.051 -0.047 0.051 0c0.322,0.479 0.483,0.802 0.483,0.967 0.132,0.39 0.199,0.746 0.199,1.068l0 0.251c0,0.364 -0.051,0.686 -0.148,0.966l0.047 0.199c-0.183,0.802 -0.619,1.582 -1.315,2.336 -0.712,0.577 -1.343,0.869 -1.89,0.869l-0.446 0.149 -0.436 0 -1.018 -0.2c-0.089,0 -0.368,-0.178 -0.831,-0.534l-0.038 0c0,0.123 -0.212,0.242 -0.631,0.348 -0.87,0 -1.522,-0.326 -1.951,-0.979l0 -0.089c0.373,0.258 0.615,0.386 0.734,0.386 0.386,-0.068 0.581,-0.183 0.581,-0.348l0.051 -0.038 0.05 0c0,-0.064 -0.05,-0.098 -0.148,-0.098l0 -0.102 -0.051 -0.381 0.051 -0.25 -0.051 -0.25 0.051 -0.187 -0.051 -0.246 0.051 -0.186 -0.051 -0.051 0 -0.051 0.098 -0.445 -0.047 -0.038 0 -0.051 0.047 -0.195 -0.098 -0.102 0.051 -0.051 -0.051 -0.233 0 -2.387 0.051 -0.246c-0.216,-0.174 -0.445,-0.432 -0.687,-0.771l-0.047 -0.051 -0.05 0c0,-0.098 0.114,-0.216 0.347,-0.348 0,-0.08 0.11,-0.212 0.335,-0.386l0.335 0.102 0.051 0 0 -0.051 -0.386 -0.097 0.102 -0.734 -0.051 -0.051 0 -0.05 0.051 -0.484 -0.051 -0.534 0.051 -0.581 0.098 0 0 -0.102c-0.098,0 -0.149,-0.029 -0.149,-0.084l0 -0.301c0,-0.064 0.051,-0.098 0.149,-0.098l0 -0.051 -0.098 0 0 -0.051 0.047 -0.334 -0.098 -0.149 0 -0.097 0.051 0 -0.051 -0.573 0 -0.585c-0.102,-0.33 -0.199,-0.496 -0.301,-0.496l-0.233 -0.051 -0.399 0c-0.339,0 -0.627,0.149 -0.869,0.45l0 -0.102c0.251,-0.712 1.043,-1.068 2.387,-1.068 0.246,0 0.509,0.195 0.78,0.585l0.089 0c0.263,-0.259 0.556,-0.45 0.882,-0.585l0.148 0.139 0 -0.139 0.047 0.051 0.186 0c0,-0.081 0.119,-0.149 0.348,-0.2zm-3.315 0.636l0 0.098 0.199 -0.051 0 -0.098 -0.051 0 -0.148 0.051zm2.149 0.78c0,0.06 0.047,0.089 0.136,0.089l0.051 0 0 -0.051 -0.187 -0.038zm0.484 0.187l0.101 0.102 0.047 0 -0.097 -0.102 -0.051 0zm0.288 1.467l0.046 0.135 -0.097 0.831 0.097 0.437 0 0.051c0,0.229 -0.029,0.347 -0.097,0.347l0.097 0.234 -0.097 0.385c0.199,0.39 0.428,0.585 0.683,0.585l0.051 0c0.809,0 1.216,-0.39 1.216,-1.17l0.051 -0.233 -0.051 -0.199 0 -0.238 0.098 -0.148c-0.064,0 -0.098,-0.051 -0.098,-0.148l0.098 -0.437 -0.098 -0.097 0 -0.051 0.149 -0.2 -0.098 0 0 -0.034 0.098 -0.152c-0.098,0 -0.149,-0.03 -0.149,-0.098l0 -0.335 -0.051 -0.25 0.2 0.051 0.05 0 0 -0.051c-0.165,0 -0.33,-0.093 -0.496,-0.284l-0.534 -0.347c-0.648,0.165 -1.005,0.555 -1.068,1.166l0 0.25zm3.502 -0.683l0.051 0 0.097 -0.102 -0.051 0 -0.097 0.102zm-1.217 -0.051l0 0.051 0.098 0.098 0 -0.051 -0.098 -0.098zm0.632 0.051c0,0.064 -0.06,0.098 -0.187,0.098l0 0.05 0.238 0.039 0 -0.039 0.05 -0.05 0 -0.051 -0.05 -0.047 -0.051 0zm0.101 0.284l0.149 0.051c0,-0.14 0.093,-0.237 0.284,-0.288l0 -0.047 -0.051 0c-0.254,0.115 -0.382,0.212 -0.382,0.284zm-0.534 -0.237l0.098 0.101 0.051 0 -0.102 -0.101 -0.047 0zm0.047 0.339l0 0.148 0.335 -0.199 0.051 0.051 0.101 0 0 -0.051 -0.101 -0.102 -0.386 0.153zm-0.382 0.195l0 0.051 0.085 0 0.149 -0.051 0 -0.047 -0.051 0 -0.183 0.047zm-4.188 3.506l0 0.097 0.186 0 0 -0.051 -0.186 -0.046zm0.237 0.136l0 0.046 0.199 0.051 0 -0.097 -0.199 0zm0.445 0.148c0,0.068 0.047,0.097 0.14,0.097l0.098 0 0 -0.046 -0.238 -0.051zm0.823 0.199l0 0.149c0.131,0 0.229,0.063 0.297,0.186l-0.051 0.051 0.436 0.097 0.149 0 0 -0.05c-0.39,-0.064 -0.585,-0.195 -0.585,-0.382l-0.098 0 0 0.098c-0.068,0 -0.102,-0.051 -0.102,-0.149l-0.046 0zm-0.585 0.051l0 0.098 0.148 0 0 -0.051 -0.148 -0.047zm0.347 0.149l0 0.033 0.051 0.051 0.085 0 0 -0.051 -0.136 -0.033zm1.204 0.283l0 0.102 0.2 0.047c0,-0.047 -0.064,-0.098 -0.2,-0.149zm0.301 0.2l0 0.051 0.284 0.084 0.149 0 0 -0.05 -0.386 -0.085 -0.047 0zm0.484 0.135l0 0.102 0.148 0 0 -0.051 -0.148 -0.051zm0.296 0.149l0 0.051 0.187 0.05c0,-0.067 -0.047,-0.101 -0.136,-0.101l-0.051 0zm-1.564 1.602l0.097 0.149 -0.046 0.339 0.046 0.047 0 0.05 -0.046 0.051 0.046 0.297 -0.046 0.92 0.046 0.047 0 0.05 -0.046 0.051 0.046 0.238 0 0.046 -0.097 0.102 0.199 0.831 -0.051 0.051c0.068,0 0.195,0.127 0.386,0.386l0.534 0.097c0.619,-0.097 0.933,-0.36 0.933,-0.784l-0.051 -0.335 0.098 -0.683 -0.098 -0.432 0.051 -0.25 -0.051 -0.534 0.098 -0.585 -0.098 -0.098 0 -0.097c0,-0.327 0.051,-0.488 0.149,-0.488l0 -0.047c-0.174,0 -0.306,-0.211 -0.399,-0.635l-0.632 -0.285c-0.644,0.09 -0.971,0.53 -0.971,1.315l-0.097 0.186zm2.2 -1.352l0 0.051 0.234 0.085 0 -0.085 -0.149 -0.051 -0.085 0zm1.115 0.186c0,0.072 -0.08,0.123 -0.246,0.149l-0.05 -0.051 -0.437 0.051 0 0.051c0.326,0 0.487,0.034 0.487,0.097 0.166,0 0.246,-0.063 0.246,-0.199l0.089 0 -0.089 -0.098zm0.437 0.098l0 0.051 0.097 0 0.136 -0.051 0 -0.047 -0.085 0 -0.148 0.047zm-0.386 0.199l0 0.051 0.187 0.098 0.051 0c0,-0.047 -0.068,-0.098 -0.2,-0.149l-0.038 0zm0.335 0.149l0 0.089 0.148 0 0 -0.038 -0.148 -0.051zm0.437 0.186c0,0.068 0.046,0.102 0.148,0.102l0.098 0 0 -0.051 -0.246 -0.051zm-4.909 3.701l-0.098 0.187 0.098 0 0.05 -0.136 0 -0.051 -0.05 0zm0.72 0.102l-0.038 0.051 0 0.034 0.038 0 0.148 -0.034 0 -0.051 -0.148 0zm-0.581 0.136l0 0.097 0.348 -0.047 0 -0.101 -0.348 0.051zm-1.119 0.097l0 0.051 0.148 0 0.102 -0.098 -0.102 0 -0.148 0.047zm0.831 -0.047l0 0.098 0.051 0 0.098 -0.098 -0.149 0zm-0.335 0.297l0.187 0.102 0.25 0 -0.051 -0.199 -0.051 0c0,0.097 -0.034,0.148 -0.097,0.148l-0.102 0 0 -0.051 0.051 -0.051 0 -0.046 -0.098 0 -0.089 0.097zm0.484 -0.097l0.101 0.097 0.038 0 0 -0.097 -0.139 0zm0.288 0.335l-0.051 0.148 0 0.051 0.051 0 0 -0.102 0.046 0 0.251 0.102c0,-0.068 -0.068,-0.102 -0.2,-0.102l0 -0.097 -0.097 0zm-1.654 0.445l0 0.051 0.149 0.038 0 -0.089 -0.149 0z"/>
 </g>
</svg>
